<svg xmlns="http://www.w3.org/2000/svg" xmlns:xlink="http://www.w3.org/1999/xlink" width="500" zoomAndPan="magnify" viewBox="0 0 375 374.999991" height="500" preserveAspectRatio="xMidYMid meet" version="1.0"><defs><g/></defs><rect x="-37.5" width="450" fill="#ffffff" y="-37.499999" height="449.999989" fill-opacity="1"/><rect x="-37.5" width="450" fill="#301514" y="-37.499999" height="449.999989" fill-opacity="1"/><g fill="#f0e5d5" fill-opacity="1"><g transform="translate(96.691404, 214.939527)"><g><path d="M 21.140625 -29.421875 L 21.140625 -1.5625 L 23.546875 -1.5625 L 23.546875 0.125 L 3.609375 0.125 L 3.609375 -1.5625 L 6 -1.5625 L 6 -88.640625 L 3.609375 -88.640625 L 3.609375 -90.078125 L 29.78125 -90.078125 C 31.945312 -90.078125 33.929688 -89.613281 35.734375 -88.6875 C 37.535156 -87.769531 39.15625 -86.472656 40.59375 -84.796875 L 40.84375 -84.3125 L 41.203125 -84.078125 L 42.03125 -83 L 42.765625 -82.03125 C 43.398438 -80.914062 44 -79.472656 44.5625 -77.703125 C 45.125 -75.941406 45.40625 -74.0625 45.40625 -72.0625 L 45.40625 -46.609375 C 45.40625 -44.597656 45.160156 -42.550781 44.671875 -40.46875 C 44.191406 -38.394531 43.191406 -36.4375 41.671875 -34.59375 C 41.429688 -34.1875 41.148438 -33.785156 40.828125 -33.390625 C 40.515625 -32.992188 40 -32.550781 39.28125 -32.0625 L 36.875 -30.390625 L 34.953125 -29.671875 L 33.15625 -29.421875 Z M 29.78125 -32.546875 L 29.78125 -87.078125 L 21.140625 -87.078125 L 21.140625 -32.546875 Z M 29.78125 -32.546875 "/></g></g></g><g fill="#f0e5d5" fill-opacity="1"><g transform="translate(147.856299, 214.939527)"><g><path d="M 2.28125 -30.984375 L 2.28125 -32.421875 L 19.8125 -32.421875 L 19.8125 -1.4375 L 22.09375 -1.4375 L 22.09375 0.125 L 2.28125 0.125 L 2.28125 -1.5625 L 4.6875 -1.5625 L 4.6875 -30.984375 Z M 6.484375 -54.890625 C 8.242188 -56.492188 10.207031 -57.296875 12.375 -57.296875 C 14.695312 -57.296875 16.65625 -56.492188 18.25 -54.890625 C 19.851562 -53.285156 20.65625 -51.320312 20.65625 -49 C 20.65625 -46.757812 19.851562 -44.816406 18.25 -43.171875 C 16.65625 -41.535156 14.695312 -40.71875 12.375 -40.71875 C 10.132812 -40.71875 8.171875 -41.519531 6.484375 -43.125 C 4.878906 -44.882812 4.078125 -46.84375 4.078125 -49 C 4.078125 -51.320312 4.878906 -53.285156 6.484375 -54.890625 Z M 6.484375 -54.890625 "/></g></g></g><g fill="#f0e5d5" fill-opacity="1"><g transform="translate(171.757272, 214.939527)"><g><path d="M 19.09375 -23.546875 L 19.09375 -1.4375 L 21.375 -1.4375 L 21.375 0.125 L 1.5625 0.125 L 1.5625 -1.5625 L 3.96875 -1.5625 L 3.96875 -30.984375 L 1.5625 -30.984375 L 1.5625 -32.421875 L 19.09375 -32.421875 L 19.09375 -27.625 L 19.453125 -27.75 L 20.421875 -28.109375 L 21.015625 -28.21875 L 21.5 -28.46875 C 21.738281 -30.144531 22.617188 -31.503906 24.140625 -32.546875 L 25.703125 -33.390625 C 26.828125 -33.867188 27.945312 -34.109375 29.0625 -34.109375 C 31.226562 -34.109375 33.109375 -33.367188 34.703125 -31.890625 C 36.304688 -30.410156 37.109375 -28.546875 37.109375 -26.296875 C 37.109375 -24.140625 36.347656 -22.28125 34.828125 -20.71875 C 33.304688 -19.15625 31.503906 -18.375 29.421875 -18.375 C 27.503906 -18.375 25.84375 -18.894531 24.4375 -19.9375 C 23.039062 -20.976562 22.019531 -22.457031 21.375 -24.375 Z M 19.09375 -23.546875 "/></g></g></g><g fill="#f0e5d5" fill-opacity="1"><g transform="translate(210.070887, 214.939527)"><g><path d="M 3.609375 -88.640625 L 3.609375 -90.078125 L 21.140625 -90.078125 L 21.140625 -1.4375 L 23.421875 -1.4375 L 23.421875 0.125 L 3.609375 0.125 L 3.609375 -1.5625 L 6 -1.5625 L 6 -88.640625 Z M 3.609375 -88.640625 "/></g></g></g><g fill="#f0e5d5" fill-opacity="1"><g transform="translate(237.094598, 214.939527)"><g><path d="M 7.453125 -3.84375 C 3.441406 -6.882812 1.4375 -10.804688 1.4375 -15.609375 L 1.4375 -16.09375 C 1.4375 -20.738281 3.359375 -24.742188 7.203125 -28.109375 C 9.128906 -29.703125 11.171875 -30.898438 13.328125 -31.703125 C 14.296875 -32.023438 15.414062 -32.304688 16.6875 -32.546875 C 17.96875 -32.785156 19.210938 -32.90625 20.421875 -32.90625 C 25.222656 -32.90625 29.601562 -31.300781 33.5625 -28.09375 C 37.53125 -24.894531 39.515625 -20.851562 39.515625 -15.96875 C 39.515625 -11.082031 37.570312 -7.117188 33.6875 -4.078125 C 29.800781 -1.035156 25.457031 0.484375 20.65625 0.484375 C 16.09375 0.484375 11.691406 -0.957031 7.453125 -3.84375 Z M 25.109375 -29.421875 L 15.96875 -29.421875 L 15.96875 -3 L 25.109375 -3 Z M 25.109375 -29.421875 "/></g></g></g><g fill="#f0e5d5" fill-opacity="1"><g transform="translate(98.901234, 233.293725)"><g><path d="M 0.234375 -0.046875 C 0.503906 -0.140625 0.691406 -0.328125 0.796875 -0.609375 C 0.910156 -0.898438 0.96875 -1.363281 0.96875 -2 L 0.96875 -7.6875 C 0.96875 -8.320312 0.910156 -8.78125 0.796875 -9.0625 C 0.691406 -9.351562 0.503906 -9.546875 0.234375 -9.640625 L 0.234375 -9.6875 L 4.375 -9.6875 C 5.195312 -9.6875 5.859375 -9.46875 6.359375 -9.03125 C 6.859375 -8.601562 7.109375 -8.066406 7.109375 -7.421875 C 7.109375 -7.003906 7.003906 -6.628906 6.796875 -6.296875 C 6.597656 -5.972656 6.320312 -5.71875 5.96875 -5.53125 C 5.625 -5.351562 5.242188 -5.269531 4.828125 -5.28125 C 5.203125 -4.820312 5.554688 -4.253906 5.890625 -3.578125 C 6.234375 -2.910156 6.515625 -2.242188 6.734375 -1.578125 C 7.003906 -0.734375 7.320312 -0.222656 7.6875 -0.046875 L 7.6875 0 L 4.796875 0 L 4.78125 -0.046875 C 5.175781 -0.234375 5.285156 -0.679688 5.109375 -1.390625 C 4.972656 -1.972656 4.773438 -2.566406 4.515625 -3.171875 C 4.265625 -3.785156 3.96875 -4.351562 3.625 -4.875 C 3.289062 -5.40625 2.914062 -5.820312 2.5 -6.125 L 2.5 -2 C 2.5 -1.363281 2.550781 -0.898438 2.65625 -0.609375 C 2.769531 -0.328125 2.960938 -0.140625 3.234375 -0.046875 L 3.234375 0 L 0.234375 0 Z M 2.5 -8.421875 C 2.5 -7.984375 2.578125 -7.597656 2.734375 -7.265625 C 2.898438 -6.929688 3.117188 -6.671875 3.390625 -6.484375 C 3.671875 -6.296875 3.957031 -6.203125 4.25 -6.203125 C 4.632812 -6.203125 4.925781 -6.316406 5.125 -6.546875 C 5.320312 -6.773438 5.421875 -7.035156 5.421875 -7.328125 C 5.421875 -7.734375 5.253906 -8.070312 4.921875 -8.34375 C 4.585938 -8.613281 4.15625 -8.75 3.625 -8.75 L 2.5 -8.75 Z M 2.5 -8.421875 "/></g></g></g><g fill="#f0e5d5" fill-opacity="1"><g transform="translate(110.151734, 233.293725)"><g><path d="M 0.234375 -0.046875 C 0.503906 -0.140625 0.691406 -0.328125 0.796875 -0.609375 C 0.910156 -0.898438 0.96875 -1.363281 0.96875 -2 L 0.96875 -7.6875 C 0.96875 -8.320312 0.910156 -8.78125 0.796875 -9.0625 C 0.691406 -9.351562 0.503906 -9.546875 0.234375 -9.640625 L 0.234375 -9.6875 L 3.234375 -9.6875 L 3.234375 -9.640625 C 2.960938 -9.546875 2.769531 -9.351562 2.65625 -9.0625 C 2.550781 -8.78125 2.5 -8.320312 2.5 -7.6875 L 2.5 -2 C 2.5 -1.363281 2.550781 -0.898438 2.65625 -0.609375 C 2.769531 -0.328125 2.960938 -0.140625 3.234375 -0.046875 L 3.234375 0 L 0.234375 0 Z M 0.234375 -0.046875 "/></g></g></g><g fill="#f0e5d5" fill-opacity="1"><g transform="translate(117.35811, 233.293725)"><g><path d="M 3.171875 0.15625 C 2.628906 0.15625 2.097656 0.046875 1.578125 -0.171875 C 1.066406 -0.390625 0.644531 -0.710938 0.3125 -1.140625 L 0.9375 -3.4375 L 0.984375 -3.4375 C 1.054688 -2.875 1.21875 -2.410156 1.46875 -2.046875 C 1.71875 -1.691406 2.007812 -1.425781 2.34375 -1.25 C 2.6875 -1.070312 3.019531 -0.984375 3.34375 -0.984375 C 3.726562 -0.984375 4.0625 -1.097656 4.34375 -1.328125 C 4.625 -1.566406 4.765625 -1.90625 4.765625 -2.34375 C 4.765625 -2.71875 4.660156 -3.035156 4.453125 -3.296875 C 4.242188 -3.554688 3.976562 -3.789062 3.65625 -4 C 3.332031 -4.207031 2.992188 -4.414062 2.640625 -4.625 C 2.285156 -4.832031 1.945312 -5.054688 1.625 -5.296875 C 1.300781 -5.546875 1.035156 -5.84375 0.828125 -6.1875 C 0.628906 -6.53125 0.53125 -6.9375 0.53125 -7.40625 C 0.53125 -8.132812 0.769531 -8.722656 1.25 -9.171875 C 1.738281 -9.617188 2.378906 -9.84375 3.171875 -9.84375 C 3.671875 -9.84375 4.09375 -9.773438 4.4375 -9.640625 C 4.78125 -9.515625 5.039062 -9.453125 5.21875 -9.453125 C 5.3125 -9.453125 5.378906 -9.476562 5.421875 -9.53125 L 5.515625 -7.1875 L 5.4375 -7.171875 C 5.257812 -7.660156 4.972656 -8.0625 4.578125 -8.375 C 4.179688 -8.6875 3.753906 -8.84375 3.296875 -8.84375 C 2.953125 -8.84375 2.65625 -8.742188 2.40625 -8.546875 C 2.164062 -8.359375 2.046875 -8.066406 2.046875 -7.671875 C 2.046875 -7.328125 2.144531 -7.03125 2.34375 -6.78125 C 2.550781 -6.539062 2.8125 -6.320312 3.125 -6.125 C 3.445312 -5.925781 3.785156 -5.722656 4.140625 -5.515625 C 4.503906 -5.316406 4.84375 -5.085938 5.15625 -4.828125 C 5.476562 -4.578125 5.738281 -4.28125 5.9375 -3.9375 C 6.144531 -3.59375 6.25 -3.171875 6.25 -2.671875 C 6.25 -2.035156 6.101562 -1.503906 5.8125 -1.078125 C 5.519531 -0.660156 5.140625 -0.347656 4.671875 -0.140625 C 4.203125 0.0546875 3.703125 0.15625 3.171875 0.15625 Z M 3.171875 0.15625 "/></g></g></g><g fill="#f0e5d5" fill-opacity="1"><g transform="translate(127.589079, 233.293725)"><g><path d="M 1.84375 -0.046875 C 2.113281 -0.140625 2.300781 -0.328125 2.40625 -0.609375 C 2.507812 -0.898438 2.5625 -1.363281 2.5625 -2 L 2.5625 -8.671875 L 1.953125 -8.671875 C 1.578125 -8.671875 1.238281 -8.546875 0.9375 -8.296875 C 0.644531 -8.054688 0.4375 -7.726562 0.3125 -7.3125 L 0.234375 -7.328125 L 0.546875 -9.828125 C 0.585938 -9.785156 0.671875 -9.75 0.796875 -9.71875 C 0.929688 -9.695312 1.078125 -9.6875 1.234375 -9.6875 L 5.40625 -9.6875 C 5.5625 -9.6875 5.703125 -9.695312 5.828125 -9.71875 C 5.960938 -9.75 6.054688 -9.785156 6.109375 -9.828125 L 6.40625 -7.328125 L 6.34375 -7.3125 C 6.21875 -7.726562 6.003906 -8.054688 5.703125 -8.296875 C 5.398438 -8.546875 5.0625 -8.671875 4.6875 -8.671875 L 4.09375 -8.671875 L 4.09375 -2 C 4.09375 -1.363281 4.144531 -0.898438 4.25 -0.609375 C 4.363281 -0.328125 4.554688 -0.140625 4.828125 -0.046875 L 4.828125 0 L 1.84375 0 Z M 1.84375 -0.046875 "/></g></g></g><g fill="#f0e5d5" fill-opacity="1"><g transform="translate(137.972986, 233.293725)"><g><path d="M 4.3125 -0.890625 C 4.644531 -0.890625 4.910156 -1.015625 5.109375 -1.265625 C 5.316406 -1.523438 5.46875 -1.863281 5.5625 -2.28125 C 5.664062 -2.707031 5.71875 -3.175781 5.71875 -3.6875 C 5.71875 -4.25 5.660156 -4.832031 5.546875 -5.4375 C 5.429688 -6.039062 5.269531 -6.597656 5.0625 -7.109375 C 4.851562 -7.617188 4.597656 -8.03125 4.296875 -8.34375 C 4.003906 -8.65625 3.675781 -8.8125 3.3125 -8.8125 C 2.988281 -8.8125 2.71875 -8.679688 2.5 -8.421875 C 2.289062 -8.171875 2.140625 -7.832031 2.046875 -7.40625 C 1.953125 -6.988281 1.90625 -6.523438 1.90625 -6.015625 C 1.90625 -5.441406 1.960938 -4.851562 2.078125 -4.25 C 2.191406 -3.644531 2.351562 -3.085938 2.5625 -2.578125 C 2.769531 -2.066406 3.023438 -1.65625 3.328125 -1.34375 C 3.628906 -1.039062 3.957031 -0.890625 4.3125 -0.890625 Z M 0.40625 -5.015625 C 0.40625 -6.535156 0.703125 -7.71875 1.296875 -8.5625 C 1.898438 -9.414062 2.738281 -9.84375 3.8125 -9.84375 C 4.488281 -9.84375 5.082031 -9.628906 5.59375 -9.203125 C 6.101562 -8.785156 6.5 -8.203125 6.78125 -7.453125 C 7.0625 -6.710938 7.203125 -5.84375 7.203125 -4.84375 C 7.203125 -3.851562 7.0625 -2.984375 6.78125 -2.234375 C 6.5 -1.484375 6.101562 -0.894531 5.59375 -0.46875 C 5.082031 -0.0507812 4.488281 0.15625 3.8125 0.15625 C 3.113281 0.15625 2.507812 -0.0546875 2 -0.484375 C 1.488281 -0.910156 1.09375 -1.507812 0.8125 -2.28125 C 0.539062 -3.0625 0.40625 -3.972656 0.40625 -5.015625 Z M 0.40625 -5.015625 "/></g></g></g><g fill="#f0e5d5" fill-opacity="1"><g transform="translate(149.325444, 233.293725)"><g><path d="M 0.234375 -0.046875 C 0.503906 -0.140625 0.691406 -0.328125 0.796875 -0.609375 C 0.910156 -0.898438 0.96875 -1.363281 0.96875 -2 L 0.96875 -7.6875 C 0.96875 -8.320312 0.910156 -8.78125 0.796875 -9.0625 C 0.691406 -9.351562 0.503906 -9.546875 0.234375 -9.640625 L 0.234375 -9.6875 L 4.375 -9.6875 C 5.195312 -9.6875 5.859375 -9.46875 6.359375 -9.03125 C 6.859375 -8.601562 7.109375 -8.066406 7.109375 -7.421875 C 7.109375 -7.003906 7.003906 -6.628906 6.796875 -6.296875 C 6.597656 -5.972656 6.320312 -5.71875 5.96875 -5.53125 C 5.625 -5.351562 5.242188 -5.269531 4.828125 -5.28125 C 5.203125 -4.820312 5.554688 -4.253906 5.890625 -3.578125 C 6.234375 -2.910156 6.515625 -2.242188 6.734375 -1.578125 C 7.003906 -0.734375 7.320312 -0.222656 7.6875 -0.046875 L 7.6875 0 L 4.796875 0 L 4.78125 -0.046875 C 5.175781 -0.234375 5.285156 -0.679688 5.109375 -1.390625 C 4.972656 -1.972656 4.773438 -2.566406 4.515625 -3.171875 C 4.265625 -3.785156 3.96875 -4.351562 3.625 -4.875 C 3.289062 -5.40625 2.914062 -5.820312 2.5 -6.125 L 2.5 -2 C 2.5 -1.363281 2.550781 -0.898438 2.65625 -0.609375 C 2.769531 -0.328125 2.960938 -0.140625 3.234375 -0.046875 L 3.234375 0 L 0.234375 0 Z M 2.5 -8.421875 C 2.5 -7.984375 2.578125 -7.597656 2.734375 -7.265625 C 2.898438 -6.929688 3.117188 -6.671875 3.390625 -6.484375 C 3.671875 -6.296875 3.957031 -6.203125 4.25 -6.203125 C 4.632812 -6.203125 4.925781 -6.316406 5.125 -6.546875 C 5.320312 -6.773438 5.421875 -7.035156 5.421875 -7.328125 C 5.421875 -7.734375 5.253906 -8.070312 4.921875 -8.34375 C 4.585938 -8.613281 4.15625 -8.75 3.625 -8.75 L 2.5 -8.75 Z M 2.5 -8.421875 "/></g></g></g><g fill="#f0e5d5" fill-opacity="1"><g transform="translate(160.575947, 233.293725)"><g><path d="M -0.34375 -0.046875 C -0.113281 -0.128906 0.0664062 -0.285156 0.203125 -0.515625 C 0.335938 -0.742188 0.476562 -1.148438 0.625 -1.734375 L 2.15625 -7.59375 C 2.320312 -8.238281 2.394531 -8.71875 2.375 -9.03125 C 2.363281 -9.351562 2.265625 -9.554688 2.078125 -9.640625 L 2.078125 -9.6875 L 4.5625 -9.6875 L 6.703125 -1.734375 C 6.835938 -1.191406 6.972656 -0.796875 7.109375 -0.546875 C 7.253906 -0.304688 7.441406 -0.140625 7.671875 -0.046875 L 7.671875 0 L 4.71875 0 L 4.71875 -0.046875 C 4.957031 -0.140625 5.101562 -0.335938 5.15625 -0.640625 C 5.21875 -0.941406 5.171875 -1.394531 5.015625 -2 L 4.90625 -2.375 L 2.015625 -2.375 L 1.9375 -2 C 1.789062 -1.40625 1.738281 -0.957031 1.78125 -0.65625 C 1.832031 -0.351562 1.984375 -0.148438 2.234375 -0.046875 L 2.234375 0 L -0.34375 0 Z M 2.28125 -3.40625 L 4.65625 -3.40625 L 3.40625 -8 Z M 2.28125 -3.40625 "/></g></g></g><g fill="#f0e5d5" fill-opacity="1"><g transform="translate(171.639534, 233.293725)"><g><path d="M 0.234375 -0.046875 C 0.472656 -0.128906 0.644531 -0.269531 0.75 -0.46875 C 0.851562 -0.675781 0.914062 -0.90625 0.9375 -1.15625 C 0.957031 -1.40625 0.96875 -1.632812 0.96875 -1.84375 L 0.96875 -7.609375 C 0.96875 -8.191406 0.910156 -8.640625 0.796875 -8.953125 C 0.679688 -9.273438 0.492188 -9.503906 0.234375 -9.640625 L 0.234375 -9.6875 C 1.210938 -9.75 2.050781 -9.59375 2.75 -9.21875 C 3.457031 -8.84375 4.039062 -8.316406 4.5 -7.640625 C 4.96875 -6.972656 5.335938 -6.234375 5.609375 -5.421875 L 5.609375 -7.859375 C 5.609375 -8.054688 5.597656 -8.28125 5.578125 -8.53125 C 5.554688 -8.78125 5.492188 -9.003906 5.390625 -9.203125 C 5.285156 -9.410156 5.113281 -9.554688 4.875 -9.640625 L 4.875 -9.6875 L 7.5625 -9.6875 L 7.5625 -9.640625 C 7.320312 -9.554688 7.148438 -9.410156 7.046875 -9.203125 C 6.953125 -9.003906 6.890625 -8.78125 6.859375 -8.53125 C 6.835938 -8.28125 6.828125 -8.054688 6.828125 -7.859375 L 6.828125 0 L 5.625 0 C 5.625 -0.9375 5.535156 -1.835938 5.359375 -2.703125 C 5.179688 -3.566406 4.9375 -4.335938 4.625 -5.015625 C 4.320312 -5.703125 3.957031 -6.265625 3.53125 -6.703125 C 3.113281 -7.140625 2.664062 -7.410156 2.1875 -7.515625 L 2.1875 -1.84375 C 2.1875 -1.632812 2.195312 -1.40625 2.21875 -1.15625 C 2.25 -0.90625 2.3125 -0.675781 2.40625 -0.46875 C 2.507812 -0.269531 2.679688 -0.128906 2.921875 -0.046875 L 2.921875 0 L 0.234375 0 Z M 0.234375 -0.046875 "/></g></g></g><g fill="#f0e5d5" fill-opacity="1"><g transform="translate(183.144919, 233.293725)"><g><path d="M 1.84375 -0.046875 C 2.113281 -0.140625 2.300781 -0.328125 2.40625 -0.609375 C 2.507812 -0.898438 2.5625 -1.363281 2.5625 -2 L 2.5625 -8.671875 L 1.953125 -8.671875 C 1.578125 -8.671875 1.238281 -8.546875 0.9375 -8.296875 C 0.644531 -8.054688 0.4375 -7.726562 0.3125 -7.3125 L 0.234375 -7.328125 L 0.546875 -9.828125 C 0.585938 -9.785156 0.671875 -9.75 0.796875 -9.71875 C 0.929688 -9.695312 1.078125 -9.6875 1.234375 -9.6875 L 5.40625 -9.6875 C 5.5625 -9.6875 5.703125 -9.695312 5.828125 -9.71875 C 5.960938 -9.75 6.054688 -9.785156 6.109375 -9.828125 L 6.40625 -7.328125 L 6.34375 -7.3125 C 6.21875 -7.726562 6.003906 -8.054688 5.703125 -8.296875 C 5.398438 -8.546875 5.0625 -8.671875 4.6875 -8.671875 L 4.09375 -8.671875 L 4.09375 -2 C 4.09375 -1.363281 4.144531 -0.898438 4.25 -0.609375 C 4.363281 -0.328125 4.554688 -0.140625 4.828125 -0.046875 L 4.828125 0 L 1.84375 0 Z M 1.84375 -0.046875 "/></g></g></g><g fill="#f0e5d5" fill-opacity="1"><g transform="translate(193.52883, 233.293725)"><g><path d="M 0.234375 -0.046875 C 0.503906 -0.140625 0.691406 -0.328125 0.796875 -0.609375 C 0.910156 -0.898438 0.96875 -1.363281 0.96875 -2 L 0.96875 -7.6875 C 0.96875 -8.320312 0.910156 -8.78125 0.796875 -9.0625 C 0.691406 -9.351562 0.503906 -9.546875 0.234375 -9.640625 L 0.234375 -9.6875 L 5.546875 -9.6875 C 5.671875 -9.6875 5.804688 -9.695312 5.953125 -9.71875 C 6.097656 -9.75 6.191406 -9.785156 6.234375 -9.828125 L 5.34375 -7.984375 L 5.28125 -8 C 5.34375 -8.476562 5.015625 -8.71875 4.296875 -8.71875 L 2.5 -8.71875 L 2.5 -6.171875 L 2.53125 -6.171875 C 2.65625 -6.398438 2.816406 -6.582031 3.015625 -6.71875 C 3.222656 -6.851562 3.453125 -6.921875 3.703125 -6.921875 C 4.015625 -6.921875 4.304688 -6.851562 4.578125 -6.71875 C 4.847656 -6.582031 5.125 -6.515625 5.40625 -6.515625 C 5.6875 -6.515625 5.894531 -6.617188 6.03125 -6.828125 L 6.09375 -6.8125 C 6.007812 -6.5 5.835938 -6.191406 5.578125 -5.890625 C 5.328125 -5.585938 5.019531 -5.4375 4.65625 -5.4375 C 4.46875 -5.4375 4.28125 -5.472656 4.09375 -5.546875 C 3.914062 -5.628906 3.734375 -5.710938 3.546875 -5.796875 C 3.359375 -5.878906 3.160156 -5.921875 2.953125 -5.921875 C 2.773438 -5.921875 2.625 -5.859375 2.5 -5.734375 L 2.5 -1.015625 L 4.21875 -1.015625 C 4.695312 -1.015625 5.125 -1.132812 5.5 -1.375 C 5.875 -1.613281 6.144531 -1.929688 6.3125 -2.328125 L 6.375 -2.3125 L 5.921875 0.1875 C 5.835938 0.0625 5.671875 0 5.421875 0 L 0.234375 0 Z M 0.234375 -0.046875 "/></g></g></g><g fill="#f0e5d5" fill-opacity="1"><g transform="translate(203.844762, 233.293725)"><g/></g></g><g fill="#f0e5d5" fill-opacity="1"><g transform="translate(212.002694, 233.293725)"><g><path d="M 1.359375 -10.875 L 2.3125 -10.875 L 2.3125 1.203125 L 1.359375 1.203125 Z M 1.359375 -10.875 "/></g></g></g><g fill="#f0e5d5" fill-opacity="1"><g transform="translate(219.412972, 233.293725)"><g/></g></g><g fill="#f0e5d5" fill-opacity="1"><g transform="translate(227.570903, 233.293725)"><g><path d="M 3.984375 0.171875 C 2.867188 0.171875 1.992188 -0.265625 1.359375 -1.140625 C 0.722656 -2.023438 0.40625 -3.234375 0.40625 -4.765625 C 0.40625 -6.390625 0.722656 -7.640625 1.359375 -8.515625 C 1.992188 -9.398438 2.898438 -9.84375 4.078125 -9.84375 C 4.578125 -9.84375 4.960938 -9.785156 5.234375 -9.671875 C 5.503906 -9.566406 5.734375 -9.515625 5.921875 -9.515625 C 6.015625 -9.515625 6.097656 -9.550781 6.171875 -9.625 L 6.3125 -6.90625 L 6.25 -6.890625 C 6.039062 -7.503906 5.769531 -7.976562 5.4375 -8.3125 C 5.101562 -8.644531 4.703125 -8.8125 4.234375 -8.8125 C 3.554688 -8.8125 3.023438 -8.453125 2.640625 -7.734375 C 2.253906 -7.015625 2.0625 -6.023438 2.0625 -4.765625 C 2.0625 -3.628906 2.269531 -2.710938 2.6875 -2.015625 C 3.101562 -1.316406 3.648438 -0.96875 4.328125 -0.96875 C 4.785156 -0.96875 5.1875 -1.117188 5.53125 -1.421875 C 5.882812 -1.722656 6.140625 -2.132812 6.296875 -2.65625 L 6.390625 -2.65625 L 6.546875 -1.046875 C 5.921875 -0.234375 5.066406 0.171875 3.984375 0.171875 Z M 3.984375 0.171875 "/></g></g></g><g fill="#f0e5d5" fill-opacity="1"><g transform="translate(238.090747, 233.293725)"><g><path d="M -0.34375 -0.046875 C -0.113281 -0.128906 0.0664062 -0.285156 0.203125 -0.515625 C 0.335938 -0.742188 0.476562 -1.148438 0.625 -1.734375 L 2.15625 -7.59375 C 2.320312 -8.238281 2.394531 -8.71875 2.375 -9.03125 C 2.363281 -9.351562 2.265625 -9.554688 2.078125 -9.640625 L 2.078125 -9.6875 L 4.5625 -9.6875 L 6.703125 -1.734375 C 6.835938 -1.191406 6.972656 -0.796875 7.109375 -0.546875 C 7.253906 -0.304688 7.441406 -0.140625 7.671875 -0.046875 L 7.671875 0 L 4.71875 0 L 4.71875 -0.046875 C 4.957031 -0.140625 5.101562 -0.335938 5.15625 -0.640625 C 5.21875 -0.941406 5.171875 -1.394531 5.015625 -2 L 4.90625 -2.375 L 2.015625 -2.375 L 1.9375 -2 C 1.789062 -1.40625 1.738281 -0.957031 1.78125 -0.65625 C 1.832031 -0.351562 1.984375 -0.148438 2.234375 -0.046875 L 2.234375 0 L -0.34375 0 Z M 2.28125 -3.40625 L 4.65625 -3.40625 L 3.40625 -8 Z M 2.28125 -3.40625 "/></g></g></g><g fill="#f0e5d5" fill-opacity="1"><g transform="translate(249.154333, 233.293725)"><g><path d="M 0.234375 -0.046875 C 0.503906 -0.140625 0.691406 -0.328125 0.796875 -0.609375 C 0.910156 -0.898438 0.96875 -1.363281 0.96875 -2 L 0.96875 -7.6875 C 0.96875 -8.320312 0.910156 -8.78125 0.796875 -9.0625 C 0.691406 -9.351562 0.503906 -9.546875 0.234375 -9.640625 L 0.234375 -9.6875 L 5.640625 -9.6875 C 5.765625 -9.6875 5.898438 -9.695312 6.046875 -9.71875 C 6.191406 -9.75 6.289062 -9.785156 6.34375 -9.828125 L 5.4375 -7.984375 L 5.390625 -8 C 5.441406 -8.476562 5.113281 -8.71875 4.40625 -8.71875 L 2.5 -8.71875 L 2.5 -6.015625 L 2.53125 -6.015625 C 2.65625 -6.242188 2.816406 -6.425781 3.015625 -6.5625 C 3.222656 -6.695312 3.453125 -6.765625 3.703125 -6.765625 C 4.015625 -6.765625 4.304688 -6.695312 4.578125 -6.5625 C 4.847656 -6.425781 5.125 -6.359375 5.40625 -6.359375 C 5.6875 -6.359375 5.894531 -6.46875 6.03125 -6.6875 L 6.09375 -6.65625 C 6.007812 -6.34375 5.835938 -6.035156 5.578125 -5.734375 C 5.328125 -5.429688 5.019531 -5.28125 4.65625 -5.28125 C 4.46875 -5.28125 4.28125 -5.320312 4.09375 -5.40625 C 3.914062 -5.488281 3.734375 -5.566406 3.546875 -5.640625 C 3.359375 -5.722656 3.160156 -5.765625 2.953125 -5.765625 C 2.773438 -5.765625 2.625 -5.703125 2.5 -5.578125 L 2.5 -2 C 2.5 -1.363281 2.550781 -0.898438 2.65625 -0.609375 C 2.769531 -0.328125 2.960938 -0.140625 3.234375 -0.046875 L 3.234375 0 L 0.234375 0 Z M 0.234375 -0.046875 "/></g></g></g><g fill="#f0e5d5" fill-opacity="1"><g transform="translate(259.334333, 233.293725)"><g><path d="M 0.234375 -0.046875 C 0.503906 -0.140625 0.691406 -0.328125 0.796875 -0.609375 C 0.910156 -0.898438 0.96875 -1.363281 0.96875 -2 L 0.96875 -7.6875 C 0.96875 -8.320312 0.910156 -8.78125 0.796875 -9.0625 C 0.691406 -9.351562 0.503906 -9.546875 0.234375 -9.640625 L 0.234375 -9.6875 L 5.640625 -9.6875 C 5.765625 -9.6875 5.898438 -9.695312 6.046875 -9.71875 C 6.191406 -9.75 6.289062 -9.785156 6.34375 -9.828125 L 5.4375 -7.984375 L 5.390625 -8 C 5.441406 -8.476562 5.113281 -8.71875 4.40625 -8.71875 L 2.5 -8.71875 L 2.5 -6.015625 L 2.53125 -6.015625 C 2.65625 -6.242188 2.816406 -6.425781 3.015625 -6.5625 C 3.222656 -6.695312 3.453125 -6.765625 3.703125 -6.765625 C 4.015625 -6.765625 4.304688 -6.695312 4.578125 -6.5625 C 4.847656 -6.425781 5.125 -6.359375 5.40625 -6.359375 C 5.6875 -6.359375 5.894531 -6.46875 6.03125 -6.6875 L 6.09375 -6.65625 C 6.007812 -6.34375 5.835938 -6.035156 5.578125 -5.734375 C 5.328125 -5.429688 5.019531 -5.28125 4.65625 -5.28125 C 4.46875 -5.28125 4.28125 -5.320312 4.09375 -5.40625 C 3.914062 -5.488281 3.734375 -5.566406 3.546875 -5.640625 C 3.359375 -5.722656 3.160156 -5.765625 2.953125 -5.765625 C 2.773438 -5.765625 2.625 -5.703125 2.5 -5.578125 L 2.5 -2 C 2.5 -1.363281 2.550781 -0.898438 2.65625 -0.609375 C 2.769531 -0.328125 2.960938 -0.140625 3.234375 -0.046875 L 3.234375 0 L 0.234375 0 Z M 0.234375 -0.046875 "/></g></g></g><g fill="#f0e5d5" fill-opacity="1"><g transform="translate(269.514332, 233.293725)"><g><path d="M 0.234375 -0.046875 C 0.503906 -0.140625 0.691406 -0.328125 0.796875 -0.609375 C 0.910156 -0.898438 0.96875 -1.363281 0.96875 -2 L 0.96875 -7.6875 C 0.96875 -8.320312 0.910156 -8.78125 0.796875 -9.0625 C 0.691406 -9.351562 0.503906 -9.546875 0.234375 -9.640625 L 0.234375 -9.6875 L 5.546875 -9.6875 C 5.671875 -9.6875 5.804688 -9.695312 5.953125 -9.71875 C 6.097656 -9.75 6.191406 -9.785156 6.234375 -9.828125 L 5.34375 -7.984375 L 5.28125 -8 C 5.34375 -8.476562 5.015625 -8.71875 4.296875 -8.71875 L 2.5 -8.71875 L 2.5 -6.171875 L 2.53125 -6.171875 C 2.65625 -6.398438 2.816406 -6.582031 3.015625 -6.71875 C 3.222656 -6.851562 3.453125 -6.921875 3.703125 -6.921875 C 4.015625 -6.921875 4.304688 -6.851562 4.578125 -6.71875 C 4.847656 -6.582031 5.125 -6.515625 5.40625 -6.515625 C 5.6875 -6.515625 5.894531 -6.617188 6.03125 -6.828125 L 6.09375 -6.8125 C 6.007812 -6.5 5.835938 -6.191406 5.578125 -5.890625 C 5.328125 -5.585938 5.019531 -5.4375 4.65625 -5.4375 C 4.46875 -5.4375 4.28125 -5.472656 4.09375 -5.546875 C 3.914062 -5.628906 3.734375 -5.710938 3.546875 -5.796875 C 3.359375 -5.878906 3.160156 -5.921875 2.953125 -5.921875 C 2.773438 -5.921875 2.625 -5.859375 2.5 -5.734375 L 2.5 -1.015625 L 4.21875 -1.015625 C 4.695312 -1.015625 5.125 -1.132812 5.5 -1.375 C 5.875 -1.613281 6.144531 -1.929688 6.3125 -2.328125 L 6.375 -2.3125 L 5.921875 0.1875 C 5.835938 0.0625 5.671875 0 5.421875 0 L 0.234375 0 Z M 0.234375 -0.046875 "/></g></g></g></svg>